HIERARCHY
ROOT Beta:Hips
{
	OFFSET 0.00 0.00 0.00
	CHANNELS 6 Xposition Yposition Zposition Yrotation Xrotation Zrotation
	JOINT Beta:Spine
	{
		OFFSET	0.0000	9.2263	1.5771
		CHANNELS 3 Xrotation Yrotation Zrotation
		JOINT Beta:Spine1
		{
			OFFSET	0.0000	16.2540	-0.1656
			CHANNELS 3 Xrotation Yrotation Zrotation
			JOINT Beta:Spine2
			{
				OFFSET	0.0000	13.6396	-1.2923
				CHANNELS 3 Xrotation Yrotation Zrotation
				JOINT Beta:Neck
				{
					OFFSET	0.0000	13.8774	-4.3542
					CHANNELS 3 Xrotation Yrotation Zrotation
					JOINT Beta:Neck1
					{
						OFFSET	0.0000	4.3400	0.9269
						CHANNELS 3 Xrotation Yrotation Zrotation
						JOINT Beta:Head
						{
							OFFSET	0.0000	4.0266	0.8585
							CHANNELS 3 Xrotation Yrotation Zrotation
							End Site
							{
								OFFSET 0.0000 23.0297 0.1231
							}
						}
					}
				}
				JOINT Beta:LeftShoulder
				{
					OFFSET	6.1442	10.1870	-3.7932
					CHANNELS 3 Zrotation Xrotation Yrotation
					JOINT Beta:LeftArm
					{
						OFFSET	12.3191	-1.1130	-1.7935
						CHANNELS 3 Zrotation Xrotation Yrotation
						JOINT Beta:LeftForeArm
						{
							OFFSET	27.6870	0.0000	0.0000
							CHANNELS 3 Xrotation Zrotation Yrotation
							JOINT Beta:LeftHand
							{
								OFFSET	27.8738	0.0000	0.0000
								CHANNELS 3 Zrotation Yrotation Xrotation
								JOINT Beta:LeftHandThumb1
								{
									OFFSET	2.3785	-1.0029	2.6209
									CHANNELS 3 Zrotation Xrotation Yrotation
									JOINT Beta:LeftHandThumb2
									{
										OFFSET	3.3624	-1.0029	2.8398
										CHANNELS 3 Zrotation Xrotation Yrotation
										JOINT Beta:LeftHandThumb3
										{
											OFFSET	4.5018	-1.3445	2.1783
											CHANNELS 3 Zrotation Xrotation Yrotation
											End Site
											{
												OFFSET 2.6000 -1.0000 1.0000
											}
										}
									}
								}
								JOINT Beta:LeftHandMiddle1
								{
									OFFSET	10.4639	0.6148	0.4298
									CHANNELS 3 Zrotation Xrotation Yrotation
									JOINT Beta:LeftHandMiddle2
									{
										OFFSET	5.7921	0.0000	0.0000
										CHANNELS 3 Zrotation Xrotation Yrotation
										JOINT Beta:LeftHandMiddle3
										{
											OFFSET	3.7132	0.0000	0.0000
											CHANNELS 3 Zrotation Xrotation Yrotation
											End Site
											{
												OFFSET 2.3000 0.0000 0.0000
											}
										}
									}
								}
								JOINT Beta:LeftHandIndex1
								{
									OFFSET	10.3945	0.6148	2.7055
									CHANNELS 3 Zrotation Xrotation Yrotation
									JOINT Beta:LeftHandIndex2
									{
										OFFSET	5.5493	0.0000	0.0000
										CHANNELS 3 Zrotation Xrotation Yrotation
										JOINT Beta:LeftHandIndex3
										{
											OFFSET	3.3911	0.0000	0.0000
											CHANNELS 3 Zrotation Xrotation Yrotation
											End Site
											{
												OFFSET 2.5000 0.0000 0.0000
											}
										}
									}
								}
								JOINT Beta:LeftHandRing1
								{
									OFFSET	10.3252	0.3211	-1.8755
									CHANNELS 3 Zrotation Xrotation Yrotation
									JOINT Beta:LeftHandRing2
									{
										OFFSET	5.4452	0.0000	0.0000
										CHANNELS 3 Zrotation Xrotation Yrotation
										JOINT Beta:LeftHandRing3
										{
											OFFSET	3.7132	0.0000	0.0000
											CHANNELS 3 Zrotation Xrotation Yrotation
											End Site
											{
												OFFSET 2.0000 0.0000 0.0000
											}
										}
									}
								}
								JOINT Beta:LeftHandPinky1
								{
									OFFSET	10.0130	-0.0783	-3.9671
									CHANNELS 3 Zrotation Xrotation Yrotation
									JOINT Beta:LeftHandPinky2
									{
										OFFSET	3.6763	0.0000	0.0000
										CHANNELS 3 Zrotation Xrotation Yrotation
										JOINT Beta:LeftHandPinky3
										{
											OFFSET	2.8113	0.0000	0.0000
											CHANNELS 3 Zrotation Xrotation Yrotation
											End Site
											{
												OFFSET 2.9000 0.0000 0.0000
											}
										}
									}
								}
							}
						}
					}
				}
				JOINT Beta:RightShoulder
				{
					OFFSET	-6.1402	10.1870	-3.7932
					CHANNELS 3 Zrotation Xrotation Yrotation
					JOINT Beta:RightArm
					{
						OFFSET	-12.3231	-1.1130	-1.7935
						CHANNELS 3 Zrotation Xrotation Yrotation
						JOINT Beta:RightForeArm
						{
							OFFSET	-27.6870	0.0000	0.0000
							CHANNELS 3 Xrotation Zrotation Yrotation
							JOINT Beta:RightHand
							{
								OFFSET	-27.8738	0.0000	0.0000
								CHANNELS 3 Zrotation Yrotation Xrotation
								JOINT Beta:RightHandThumb1
								{
									OFFSET	-2.5178	-0.9367	2.5137
									CHANNELS 3 Zrotation Xrotation Yrotation
									JOINT Beta:RightHandThumb2
									{
										OFFSET	-3.2638	-1.0870	2.9669
										CHANNELS 3 Zrotation Xrotation Yrotation
										JOINT Beta:RightHandThumb3
										{
											OFFSET	-4.4165	-1.3703	2.1350
											CHANNELS 3 Zrotation Xrotation Yrotation
											End Site
											{
												OFFSET -2.6000 -1.0000 1.0000
											}
										}
									}
								}
								JOINT Beta:RightHandIndex1
								{
									OFFSET	-10.4665	0.4896	2.7120
									CHANNELS 3 Zrotation Xrotation Yrotation
									JOINT Beta:RightHandIndex2
									{
										OFFSET	-5.3768	0.0000	0.0000
										CHANNELS 3 Zrotation Xrotation Yrotation
										JOINT Beta:RightHandIndex3
										{
											OFFSET	-3.3855	0.0000	0.0000
											CHANNELS 3 Zrotation Xrotation Yrotation
											End Site
											{
												OFFSET -2.6000 0.0000 0.0000
											}
										}
									}
								}
								JOINT Beta:RightHandMiddle1
								{
									OFFSET	-10.7596	0.4896	0.4278
									CHANNELS 3 Zrotation Xrotation Yrotation
									JOINT Beta:RightHandMiddle2
									{
										OFFSET	-5.6168	0.0000	0.0000
										CHANNELS 3 Zrotation Xrotation Yrotation
										JOINT Beta:RightHandMiddle3
										{
											OFFSET	-3.7364	0.0000	0.0000
											CHANNELS 3 Zrotation Xrotation Yrotation
											End Site
											{
												OFFSET -2.3000 0.0000 0.0000
											}
										}
									}
								}
								JOINT Beta:RightHandRing1
								{
									OFFSET	-10.4702	0.3879	-1.9363
									CHANNELS 3 Zrotation Xrotation Yrotation
									JOINT Beta:RightHandRing2
									{
										OFFSET	-5.4013	0.0000	0.0000
										CHANNELS 3 Zrotation Xrotation Yrotation
										JOINT Beta:RightHandRing3
										{
											OFFSET	-3.3916	0.0000	0.0000
											CHANNELS 3 Zrotation Xrotation Yrotation
											End Site
											{
												OFFSET -2.2000 0.0000 0.0000
											}
										}
									}
								}
								JOINT Beta:RightHandPinky1
								{
									OFFSET	-9.9715	-0.1191	-3.9540
									CHANNELS 3 Zrotation Xrotation Yrotation
									JOINT Beta:RightHandPinky2
									{
										OFFSET	-3.6528	0.0000	0.0000
										CHANNELS 3 Zrotation Xrotation Yrotation
										JOINT Beta:RightHandPinky3
										{
											OFFSET	-2.7820	0.0000	0.0000
											CHANNELS 3 Zrotation Xrotation Yrotation
											End Site
											{
												OFFSET -2.9000 0.0000 0.0000
											}
										}
									}
								}
							}
						}
					}
				}
			}
		}
	}
	JOINT Beta:LeftUpLeg
	{
		OFFSET	9.6338	-3.2733	0.0000
		CHANNELS 3 Xrotation Yrotation Zrotation
		JOINT Beta:LeftLeg
		{
			OFFSET	0.0000	-41.7300	-1.7300
			CHANNELS 3 Xrotation Yrotation Zrotation
			JOINT Beta:LeftFoot
			{
				OFFSET	0.0126	-39.1900	-0.8477
				CHANNELS 3 Xrotation Yrotation Zrotation
				JOINT Beta:LeftToeBase
				{
					OFFSET	-0.1833	-12.1931	8.2823
					CHANNELS 3 Xrotation Yrotation Zrotation
					End Site
					{
						OFFSET 0.0000 0.0000 10.1681
					}
				}
			}
		}
	}
	JOINT Beta:RightUpLeg
	{
		OFFSET	-9.6338	-3.2733	0.0000
		CHANNELS 3 Xrotation Yrotation Zrotation
		JOINT Beta:RightLeg
		{
			OFFSET	0.0000	-41.7300	-1.7300
			CHANNELS 3 Xrotation Yrotation Zrotation
			JOINT Beta:RightFoot
			{
				OFFSET	0.0126	-39.1900	-0.8477
				CHANNELS 3 Xrotation Yrotation Zrotation
				JOINT Beta:RightToeBase
				{
					OFFSET	-0.1833	-12.1931	8.2823
					CHANNELS 3 Xrotation Yrotation Zrotation
					End Site
					{
						OFFSET 0.0032 0.0000 10.1681
					}
				}
			}
		}
	}
}
MOTION
Frames: 4
Frame Time: 0.0333333
-4.4209 95.1674 -10.8890 33.0342 -3.9510 -2.2316 3.2490 3.6160 1.9777 0.9557 2.5459 4.9870 0.9753 2.1277 1.1366 8.0648 7.6346 -2.3078 -0.0000 0.0000 -0.0000 1.4499 26.4471 -9.4013 -18.6892 5.8417 -10.7224 -59.3913 17.7783 2.6647 0.0000 -0.0000 -23.3555 8.2706 -0.5230 -19.1598 -1.2621 4.7859 8.5754 14.6804 9.9931 9.9605 -4.6010 -6.9585 0.6551 -13.1241 -0.0000 -0.4954 -17.5347 0.0000 0.0000 -18.5447 -0.0000 -0.0000 -4.5511 0.4738 -3.9699 -17.4817 -0.0000 0.0000 -8.1001 0.0000 -0.0000 -18.3112 -0.0000 -1.0031 -20.9152 0.0000 0.0000 -17.8566 0.0000 0.0000 -23.8428 -0.0012 1.5363 -17.4042 -0.0000 -0.0000 -16.5048 -0.0000 -0.0000 14.1081 4.8742 14.0166 53.2904 27.8029 -10.3738 -0.0000 0.0000 14.6139 10.8181 -11.6243 -23.2649 1.2621 4.7859 -8.5754 -12.7508 9.8053 -14.6726 0.7645 -9.7108 4.1524 4.4502 0.3941 4.1313 17.3986 0.0000 0.0000 8.0169 -0.0000 -0.0000 12.9199 -0.0000 1.0838 17.6100 0.0000 -0.0000 18.6209 0.0000 -0.0000 19.0897 0.0000 1.2038 21.0026 0.0000 0.0000 17.9438 0.0000 -0.0000 25.1089 -0.1952 0.2893 17.5710 -0.0000 -0.0000 16.6480 -0.0000 0.0000 -15.5817 34.6157 13.3230 22.4710 9.1475 4.7927 -4.8149 24.8447 -6.6047 -4.9285 -0.0000 0.0000 -15.7833 -25.4452 -3.9463 32.5327 -10.0000 -1.3022 -6.0587 -22.9998 -2.3840 -7.6207 0.0000 0.0000 
-4.4440 95.1713 -11.2138 36.2019 -4.3925 -2.4219 3.3226 3.2420 2.1555 0.9875 2.2736 5.1044 1.0161 1.8399 1.0557 7.8522 7.0920 -1.9910 -0.0000 0.0000 -0.0000 1.1356 25.9379 -9.6115 -19.1101 5.9859 -9.1662 -60.4381 19.5921 3.0315 0.0000 -0.0000 -23.1131 8.1791 -1.3127 -20.3914 -1.2621 4.7859 8.5754 14.6398 10.0009 10.1709 -4.5732 -6.8700 0.5987 -13.0664 0.0000 -0.5724 -17.5147 0.0000 -0.0000 -18.5247 -0.0000 -0.0000 -4.5052 0.5203 -3.8732 -17.4817 0.0000 -0.0000 -8.1001 -0.0000 -0.0000 -18.2384 0.0000 -0.9560 -20.9060 0.0000 -0.0000 -17.8471 0.0000 -0.0000 -23.8579 -0.0038 1.3997 -17.3933 -0.0000 0.0000 -16.4932 0.0000 0.0000 14.3160 4.9353 14.2136 52.4984 27.3030 -10.4028 0.0000 -0.0000 14.8931 10.6781 -12.0359 -23.8371 1.2621 4.7859 -8.5754 -12.6445 10.0000 -14.5587 0.7546 -9.6903 4.1669 4.9060 0.3998 4.1212 17.3695 -0.0000 -0.0000 7.9879 -0.0000 -0.0000 13.1223 -0.0000 1.0367 17.6315 0.0000 0.0000 18.6421 0.0000 -0.0000 19.4044 -0.0000 1.2505 21.0229 0.0000 -0.0000 17.9642 -0.0000 -0.0000 25.3306 -0.2221 0.4404 17.6191 0.0000 -0.0000 16.6925 0.0000 0.0000 -15.7001 33.9965 12.7266 22.3090 9.9112 5.6261 -4.7341 21.7427 -6.3699 -4.9285 -0.0000 -0.0000 -18.8293 -20.1971 -5.5019 40.1244 -6.6355 2.1658 -3.1040 -29.9201 -3.7131 -7.6928 -0.0000 0.0000 
-4.5080 95.2869 -11.1388 40.0772 -4.7098 -2.8986 3.3731 2.8899 2.4624 1.0050 1.9921 5.1686 1.0462 1.5415 0.9869 7.6834 6.4382 -1.7321 -0.0000 0.0000 -0.0000 0.6106 24.8967 -9.6927 -19.6119 6.2002 -7.8368 -61.2088 21.1755 3.0396 0.0000 0.0000 -22.4833 9.0968 -2.2195 -21.9267 -1.2621 4.7859 8.5754 14.5263 10.0000 11.1068 -4.4921 -6.8582 0.5634 -13.0291 0.0000 -0.7172 -17.4989 0.0000 0.0000 -18.5090 -0.0000 0.0000 -4.4926 0.5454 -3.8214 -17.4817 0.0000 0.0000 -8.1001 0.0000 -0.0000 -18.3062 -0.0000 -0.8731 -20.9322 0.0000 -0.0000 -17.8729 -0.0000 0.0000 -23.9995 -0.0063 1.3030 -17.4094 -0.0000 0.0000 -16.5088 0.0000 -0.0000 14.4847 4.9445 14.2133 52.1075 26.7919 -10.3342 -0.0000 0.0000 14.9591 10.2406 -12.2641 -24.2648 1.2621 4.7859 -8.5754 -12.5962 9.9731 -14.9203 0.7687 -9.7189 4.1454 5.1261 0.4333 4.0612 17.3979 0.0000 0.0000 8.0162 0.0000 0.0000 12.9495 -0.0000 1.0501 17.5994 0.0000 0.0000 18.6100 0.0000 -0.0000 19.2178 -0.0000 1.1872 21.0269 -0.0000 -0.0000 17.9680 0.0000 0.0000 25.0731 -0.1752 0.1736 17.6988 -0.0000 -0.0000 16.7784 0.0000 -0.0000 -15.8352 33.6533 12.4797 21.5104 9.7352 6.5972 -4.2959 18.4920 -6.2299 -4.9285 -0.0000 0.0000 -20.4019 -20.1418 -6.2714 43.2201 -2.8773 2.4735 2.8217 -29.9827 -1.6253 -7.7956 0.0000 0.0000 
-4.5734 95.4141 -10.5666 44.3817 -4.8976 -3.2442 3.4570 2.6487 2.6708 1.0385 1.8522 5.0498 1.0998 1.3868 0.8663 7.4947 5.6981 -1.5102 -0.0000 0.0000 -0.0000 -0.1205 23.2255 -9.3249 -20.2321 6.4951 -6.5996 -61.6020 22.2891 2.7593 -0.0000 0.0000 -21.4705 10.6493 -2.8978 -23.8306 -1.2620 4.7859 8.5754 14.4339 9.6990 11.7411 -4.5037 -7.0831 0.7482 -12.8644 -0.0000 -0.8609 -17.4819 -0.0000 0.0000 -18.4922 0.0000 -0.0000 -4.3372 0.5169 -3.8817 -17.4774 0.0000 0.0000 -8.0958 -0.0000 0.0000 -18.3141 -0.0000 -0.8764 -20.9509 0.0000 -0.0000 -17.8916 -0.0000 0.0000 -24.0699 -0.0084 1.2413 -17.4244 -0.0000 -0.0000 -16.5237 0.0000 -0.0000 14.5841 4.9113 14.0620 52.3235 26.1376 -9.8430 0.0000 0.0000 14.5152 9.9487 -12.2845 -24.1343 1.2620 4.7859 -8.5754 -12.6631 9.8003 -15.2624 0.7887 -9.7583 4.1143 4.8168 0.4618 4.0102 17.4564 -0.0000 0.0000 8.0747 -0.0000 0.0000 12.5777 0.0000 1.0954 17.5383 0.0000 0.0000 18.5491 -0.0000 0.0000 18.7555 0.0000 1.0757 21.0199 0.0000 0.0000 17.9608 0.0000 -0.0000 24.6080 -0.0986 -0.2610 17.7048 0.0000 -0.0000 16.7943 0.0000 -0.0000 -15.8476 33.5297 12.4481 20.4258 9.6810 7.2561 -3.7447 14.3433 -6.1817 -4.9285 -0.0000 -0.0000 -20.0609 -18.8439 -5.4991 42.2110 -0.4021 2.1282 7.1870 -28.5840 1.5449 -9.2398 -0.1001 3.8212 
